<svg width="20" height="20" viewBox="0 0 20 20" fill="none" xmlns="http://www.w3.org/2000/svg">
<path d="M10 20C8.61667 20 7.31667 19.7373 6.1 19.212C4.88334 18.6867 3.825 17.9743 2.925 17.075C2.025 16.1757 1.31267 15.1173 0.788001 13.9C0.263335 12.6827 0.000667932 11.3827 1.26582e-06 10C-0.000665401 8.61734 0.262001 7.31734 0.788001 6.1C1.314 4.88267 2.02633 3.82434 2.925 2.925C3.82367 2.02567 4.882 1.31334 6.1 0.788002C7.318 0.262668 8.618 1.69491e-06 10 1.69491e-06C10.3833 1.69491e-06 10.7583 0.0210017 11.125 0.0630017C11.4917 0.105002 11.8583 0.167335 12.225 0.250002L11.775 2.2C11.4917 2.13333 11.2167 2.08334 10.95 2.05C10.6833 2.01667 10.4083 2 10.125 2C9.60833 2.58333 9.18333 3.21667 8.85 3.9C8.51667 4.58334 8.25 5.28334 8.05 6H12V8H7.65C7.6 8.33334 7.56267 8.66667 7.538 9C7.51333 9.33334 7.50067 9.66667 7.5 10C7.49933 10.3333 7.512 10.6667 7.538 11C7.564 11.3333 7.60133 11.6667 7.65 12H12.35C12.4 11.6667 12.4377 11.3333 12.463 11C12.4883 10.6667 12.5007 10.3333 12.5 10H14.5C14.5 10.3333 14.4873 10.6667 14.462 11C14.4367 11.3333 14.3993 11.6667 14.35 12H17.75C17.8333 11.6667 17.896 11.3333 17.938 11C17.98 10.6667 18.0007 10.3333 18 10H20C20 11.3833 19.7373 12.6833 19.212 13.9C18.6867 15.1167 17.9743 16.175 17.075 17.075C16.1757 17.975 15.1173 18.6877 13.9 19.213C12.6827 19.7383 11.3827 20.0007 10 20ZM2.25 12H5.65C5.6 11.6667 5.56267 11.3333 5.538 11C5.51333 10.6667 5.50067 10.3333 5.5 10C5.49933 9.66667 5.512 9.33334 5.538 9C5.564 8.66667 5.60133 8.33334 5.65 8H2.25C2.16667 8.33334 2.10433 8.66667 2.063 9C2.02167 9.33334 2.00067 9.66667 2 10C1.99933 10.3333 2.02033 10.6667 2.063 11C2.10567 11.3333 2.168 11.6667 2.25 12ZM7.35 17.55C7.06667 17.0667 6.81667 16.525 6.6 15.925C6.38334 15.325 6.18333 14.6833 6 14H3.075C3.55833 14.8333 4.16667 15.55 4.9 16.15C5.63333 16.75 6.45 17.2167 7.35 17.55ZM3.1 6H6C6.18333 5.33334 6.38334 4.696 6.6 4.088C6.81667 3.48 7.06667 2.934 7.35 2.45C6.43334 2.75 5.61667 3.20434 4.9 3.813C4.18333 4.42167 3.58333 5.15067 3.1 6ZM10 17.9C10.4333 17.3167 10.8083 16.7 11.125 16.05C11.4417 15.4 11.7167 14.7167 11.95 14H8.05C8.28333 14.7167 8.55833 15.4 8.875 16.05C9.19167 16.7 9.56667 17.3167 10 17.9ZM12.65 17.55C13.5667 17.2333 14.3877 16.7707 15.113 16.162C15.8383 15.5533 16.4423 14.8327 16.925 14H14C13.8167 14.6667 13.6167 15.3043 13.4 15.913C13.1833 16.5217 12.9333 17.0673 12.65 17.55ZM14.85 8C14.6167 8 14.4167 7.91667 14.25 7.75C14.0833 7.58334 14 7.38333 14 7.15V3.85C14 3.61667 14.0833 3.41667 14.25 3.25C14.4167 3.08333 14.6167 3 14.85 3H15V2C15 1.45 15.196 0.979335 15.588 0.588002C15.98 0.196668 16.4507 0.000668362 17 1.69491e-06C17.5493 -0.000664972 18.0203 0.195335 18.413 0.588002C18.8057 0.980668 19.0013 1.45134 19 2V3H19.15C19.3833 3 19.5833 3.08333 19.75 3.25C19.9167 3.41667 20 3.61667 20 3.85V7.15C20 7.38333 19.9167 7.58334 19.75 7.75C19.5833 7.91667 19.3833 8 19.15 8H14.85ZM16 3H18V2C18 1.71667 17.904 1.47934 17.712 1.288C17.52 1.09667 17.2827 1.00067 17 1C16.7173 0.999335 16.48 1.09534 16.288 1.288C16.096 1.48067 16 1.718 16 2V3Z" fill="#757575"/>
</svg>
