<svg width="20" height="20" viewBox="0 0 20 20" fill="none" xmlns="http://www.w3.org/2000/svg">
<path d="M7 20C6.73478 20 6.48043 19.8946 6.29289 19.7071C6.10536 19.5196 6 19.2652 6 19V16H2C1.46957 16 0.960859 15.7893 0.585786 15.4142C0.210714 15.0391 0 14.5304 0 14V2C0 1.46957 0.210714 0.960859 0.585786 0.585786C0.960859 0.210714 1.46957 0 2 0H18C18.5304 0 19.0391 0.210714 19.4142 0.585786C19.7893 0.960859 20 1.46957 20 2V14C20 14.5304 19.7893 15.0391 19.4142 15.4142C19.0391 15.7893 18.5304 16 18 16H11.9L8.2 19.71C8 19.9 7.75 20 7.5 20H7ZM14 12V11C14 9.67 11.33 9 10 9C8.67 9 6 9.67 6 11V12H14ZM10 4C9.46957 4 8.96086 4.21071 8.58579 4.58579C8.21071 4.96086 8 5.46957 8 6C8 6.53043 8.21071 7.03914 8.58579 7.41421C8.96086 7.78929 9.46957 8 10 8C10.5304 8 11.0391 7.78929 11.4142 7.41421C11.7893 7.03914 12 6.53043 12 6C12 5.46957 11.7893 4.96086 11.4142 4.58579C11.0391 4.21071 10.5304 4 10 4Z" fill="#757575"/>
</svg>
