<svg width="22" height="21" viewBox="0 0 22 21" fill="none" xmlns="http://www.w3.org/2000/svg">
<path fill-rule="evenodd" clip-rule="evenodd" d="M9.97443 0.143495C10.4944 -0.0233696 11.05 -0.0451523 11.5814 0.0804945L11.8064 0.143495L18.3404 2.23949C18.5304 2.30249 18.7014 2.42049 18.8264 2.58549L18.8964 2.69049L21.6464 7.43749C21.716 7.5574 21.7599 7.69046 21.7753 7.82823C21.7907 7.96599 21.7772 8.10546 21.7359 8.23776C21.6945 8.37007 21.6261 8.49232 21.5349 8.59677C21.4438 8.70122 21.3319 8.78558 21.2064 8.84449L21.0864 8.89149L19.0354 9.54949V13.8795C19.0353 14.2754 18.9177 14.6623 18.6975 14.9913C18.4772 15.3202 18.1644 15.5765 17.7984 15.7275L17.6464 15.7835L11.8064 17.6555C11.2865 17.8224 10.7308 17.8441 10.1994 17.7185L9.97443 17.6565L4.13443 15.7835C3.7574 15.6624 3.42479 15.4321 3.17876 15.1218C2.93273 14.8116 2.78435 14.4352 2.75243 14.0405L2.74543 13.8785V9.54949L0.69443 8.89149C0.56253 8.84916 0.440863 8.77989 0.337143 8.68807C0.233422 8.59625 0.14991 8.48388 0.0919016 8.35808C0.033893 8.23229 0.00265286 8.09581 0.000161724 7.95731C-0.00232941 7.8188 0.0239829 7.68129 0.0774303 7.55349L0.13443 7.43749L2.88443 2.69049C2.98751 2.51264 3.14289 2.37087 3.32943 2.28449L3.43943 2.23949L9.97443 0.143495ZM11.8904 9.20449V15.5285L17.0354 13.8785V10.1915L13.9454 11.1825C13.7473 11.2461 13.5342 11.2462 13.336 11.1829C13.1377 11.1197 12.9641 10.9961 12.8394 10.8295L12.7754 10.7315L11.8904 9.20449ZM9.89043 9.20449L9.00543 10.7315C8.89107 10.9288 8.7127 11.0811 8.4999 11.1632C8.2871 11.2452 8.05264 11.252 7.83543 11.1825L4.74543 10.1915V13.8785L9.89043 15.5295V9.20449ZM4.21043 4.38949L2.48743 7.36649L7.67843 9.03249L9.40343 6.05549L4.21043 4.38949ZM17.5704 4.38949L12.3774 6.05549L14.1014 9.03249L19.2934 7.36649L17.5704 4.38949ZM11.1954 2.04749C11.0371 1.99694 10.8687 1.98662 10.7054 2.01749L10.5854 2.04749L7.02043 3.19149L10.8904 4.43249L14.7604 3.19149L11.1954 2.04749Z" fill="#757575"/>
</svg>
