<svg width="24" height="24" viewBox="0 0 24 24" fill="none" xmlns="http://www.w3.org/2000/svg">
<path d="M15.5 14H14.71L14.43 13.73C15.4439 12.5541 16.0012 11.0527 16 9.5C16 7.77609 15.3152 6.12279 14.0962 4.90381C12.8772 3.68482 11.2239 3 9.5 3C6.08 3 3.28 5.64 3.03 9H5.05C5.3 6.75 7.18 5 9.5 5C11.99 5 14 7.01 14 9.5C14 11.99 11.99 14 9.5 14C9.33 14 9.17 13.97 9 13.95V15.97C9.17 15.99 9.33 16 9.5 16C11.11 16 12.59 15.41 13.73 14.43L14 14.71V15.5L19 20.49L20.49 19L15.5 14Z" fill="#757575"/>
<path d="M6.47001 10.82L4.00001 13.29L1.53001 10.82L0.820007 11.53L3.29001 14L0.820007 16.47L1.53001 17.18L4.00001 14.71L6.47001 17.18L7.18001 16.47L4.71001 14L7.18001 11.53L6.47001 10.82Z" fill="#757575"/>
</svg>
