<svg width="20" height="24" viewBox="0 0 20 24" fill="none" xmlns="http://www.w3.org/2000/svg">
<path d="M20 3.5L10 0L0 3.5V11.56C0 15.687 2.534 18.572 4.896 20.363C6.32208 21.4334 7.88622 22.3063 9.546 22.958C9.65933 23.0007 9.77333 23.0413 9.888 23.08L10 23.12L10.114 23.08C10.3327 23.0041 10.5494 22.9227 10.764 22.836C12.3097 22.1992 13.7681 21.3681 15.104 20.363C17.467 18.572 20 15.687 20 11.56V3.5ZM9.001 14.975L4.76 10.732L6.174 9.317L9.002 12.146L14.659 6.489L16.074 7.903L9.001 14.975Z" fill="#0D99FF"/>
</svg>
