<svg width="16" height="16" viewBox="0 0 16 16" fill="none" xmlns="http://www.w3.org/2000/svg">
<g clip-path="url(#clip0_60_6)">
<path fill-rule="evenodd" clip-rule="evenodd" d="M8 16C3.5815 16 0 12.4185 0 8C0 3.5815 3.5815 0 8 0C12.4185 0 16 3.5815 16 8C16 12.4185 12.4185 16 8 16ZM8.14 11.6625C8.654 12.018 9.306 12.2295 10.012 12.2295C10.1877 12.2295 10.3608 12.2167 10.5315 12.191C10.59 12.215 10.6465 12.2445 10.716 12.2845C10.866 12.3725 11.066 12.5075 11.316 12.6895C11.5205 12.839 11.81 12.6945 11.81 12.443V11.7125C11.915 11.6445 12.0142 11.5708 12.1075 11.4915C12.6725 11.0125 13 10.3575 13 9.655C13 9.1925 12.86 8.76 12.614 8.3865C12.5362 8.65164 12.4311 8.90801 12.3005 9.1515C12.3528 9.31317 12.3793 9.481 12.38 9.655C12.38 10.172 12.136 10.66 11.704 11.026C11.5925 11.1201 11.4725 11.2036 11.3455 11.2755C11.2984 11.302 11.2591 11.3406 11.2318 11.3872C11.2045 11.4339 11.1901 11.4869 11.19 11.541V11.853C10.8935 11.663 10.69 11.5735 10.535 11.5735C10.5176 11.5741 10.5002 11.5756 10.483 11.578C10.0486 11.6506 9.60327 11.6215 9.182 11.493C8.84078 11.5815 8.49214 11.6384 8.1405 11.663L8.14 11.6625ZM4.407 10.2015C4.57159 10.3414 4.74605 10.4692 4.929 10.584V11.83C4.929 12.145 5.2915 12.325 5.547 12.138C6.252 11.623 6.742 11.332 6.8645 11.303C7.14783 11.348 7.43583 11.3705 7.7285 11.3705C10.3285 11.3705 12.4575 9.567 12.4575 7.3105C12.4575 5.0535 10.328 3.25 7.7285 3.25C5.129 3.25 3 5.0535 3 7.31C3 8.415 3.515 9.4455 4.407 10.2015ZM6.8815 10.5345C6.63 10.5345 6.2625 10.712 5.7045 11.0865V10.368C5.704 10.3004 5.68571 10.2342 5.65148 10.1759C5.61725 10.1176 5.56828 10.0694 5.5095 10.036C5.29791 9.91565 5.09774 9.77624 4.9115 9.6195C4.185 9.005 3.775 8.183 3.775 7.31C3.775 5.505 5.533 4.016 7.7285 4.016C9.9245 4.016 11.682 5.505 11.682 7.31C11.682 9.115 9.9245 10.6045 7.7285 10.6045C7.46317 10.6045 7.2025 10.5828 6.9465 10.5395C6.92496 10.5364 6.90325 10.5348 6.8815 10.5345ZM5.713 8.0765C6.0555 8.0765 6.333 7.8015 6.333 7.4635C6.333 7.125 6.0555 6.8505 5.713 6.8505C5.3705 6.8505 5.093 7.125 5.093 7.4635C5.093 7.802 5.3705 8.0765 5.713 8.0765ZM7.7285 8.0765C8.071 8.0765 8.3485 7.8015 8.3485 7.4635C8.3485 7.125 8.071 6.8505 7.7285 6.8505C7.386 6.8505 7.1085 7.125 7.1085 7.4635C7.1085 7.802 7.386 8.0765 7.7285 8.0765ZM9.744 8.0765C10.0865 8.0765 10.364 7.8015 10.364 7.4635C10.364 7.125 10.0865 6.8505 9.744 6.8505C9.4015 6.8505 9.124 7.125 9.124 7.4635C9.124 7.802 9.4015 8.0765 9.744 8.0765Z" fill="#757575"/>
</g>
<defs>
<clipPath id="clip0_60_6">
<rect width="16" height="16" fill="white"/>
</clipPath>
</defs>
</svg>
