<svg width="20" height="20" viewBox="0 0 20 20" fill="none" xmlns="http://www.w3.org/2000/svg">
<path fill-rule="evenodd" clip-rule="evenodd" d="M0 10C0 14.714 0 17.071 1.464 18.535C2.93 20 5.286 20 10 20H11.5V19.74C11.499 18.133 11.498 16.975 11.818 15.991C11.8873 15.779 11.967 15.5713 12.057 15.368C11.4008 15.6212 10.7034 15.7507 10 15.75C8.75747 15.7488 7.54853 15.3465 6.553 14.603C6.39307 14.4844 6.28679 14.3072 6.25754 14.1103C6.22828 13.9134 6.27845 13.7129 6.397 13.553C6.51555 13.3931 6.69278 13.2868 6.88969 13.2575C7.0866 13.2283 7.28707 13.2784 7.447 13.397C8.175 13.937 9.054 14.25 10 14.25C10.946 14.25 11.825 13.937 12.553 13.398C12.6785 13.3048 12.8301 13.2531 12.9864 13.2502C13.1428 13.2474 13.2961 13.2934 13.425 13.382C14.1464 12.6674 15.0252 12.1317 15.991 11.818C16.975 11.498 18.133 11.499 19.741 11.5H20V10C20 5.286 20 2.929 18.535 1.464C17.072 0 14.714 0 10 0C5.286 0 2.929 0 1.464 1.464C0 2.93 0 5.286 0 10ZM13 10C13.552 10 14 9.328 14 8.5C14 7.672 13.552 7 13 7C12.448 7 12 7.672 12 8.5C12 9.328 12.448 10 13 10ZM7 10C7.552 10 8 9.328 8 8.5C8 7.672 7.552 7 7 7C6.448 7 6 7.672 6 8.5C6 9.328 6.448 10 7 10Z" fill="#757575"/>
</svg>
