<svg width="16" height="14" viewBox="0 0 16 14" fill="none" xmlns="http://www.w3.org/2000/svg">
<path d="M14 0H2C0.899 0 0 0.9 0 2V9C0 10.1 0.899 11 2 11H6L10 14V11H14C15.1 11 16 10.1 16 9V2C16 0.9 15.1 0 14 0ZM4 6.6C3.70826 6.6 3.42847 6.48411 3.22218 6.27782C3.01589 6.07153 2.9 5.79174 2.9 5.5C2.9 5.20826 3.01589 4.92847 3.22218 4.72218C3.42847 4.51589 3.70826 4.4 4 4.4C4.29174 4.4 4.57153 4.51589 4.77782 4.72218C4.98411 4.92847 5.1 5.20826 5.1 5.5C5.1 5.79174 4.98411 6.07153 4.77782 6.27782C4.57153 6.48411 4.29174 6.6 4 6.6ZM8 6.6C7.70826 6.6 7.42847 6.48411 7.22218 6.27782C7.01589 6.07153 6.9 5.79174 6.9 5.5C6.9 5.20826 7.01589 4.92847 7.22218 4.72218C7.42847 4.51589 7.70826 4.4 8 4.4C8.29174 4.4 8.57153 4.51589 8.77782 4.72218C8.98411 4.92847 9.1 5.20826 9.1 5.5C9.1 5.79174 8.98411 6.07153 8.77782 6.27782C8.57153 6.48411 8.29174 6.6 8 6.6ZM12 6.6C11.7083 6.6 11.4285 6.48411 11.2222 6.27782C11.0159 6.07153 10.9 5.79174 10.9 5.5C10.9 5.20826 11.0159 4.92847 11.2222 4.72218C11.4285 4.51589 11.7083 4.4 12 4.4C12.2917 4.4 12.5715 4.51589 12.7778 4.72218C12.9841 4.92847 13.1 5.20826 13.1 5.5C13.1 5.79174 12.9841 6.07153 12.7778 6.27782C12.5715 6.48411 12.2917 6.6 12 6.6Z" fill="#0D99FF"/>
</svg>
