<svg width="20" height="18" viewBox="0 0 20 18" fill="none" xmlns="http://www.w3.org/2000/svg">
<path d="M2.28125 0.220312C1.9875 -0.0734375 1.5125 -0.0734375 1.22187 0.220312C0.93125 0.514062 0.928125 0.989062 1.21875 1.28281L17.7188 17.7828C18.0125 18.0766 18.4875 18.0766 18.7781 17.7828C19.0688 17.4891 19.0719 17.0141 18.7781 16.7234L10.0562 7.99844C11.825 7.96719 13.25 6.52344 13.25 4.74844C13.25 2.95469 11.7938 1.49844 10 1.49844C8.225 1.49844 6.78125 2.92344 6.75 4.69219L2.28125 0.220312ZM16 9.99844C15.4625 9.99844 14.9469 10.1047 14.4781 10.2984L19.7906 15.6109C19.9219 15.4422 20 15.2297 20 14.9984V13.9984C20 11.7891 18.2094 9.99844 16 9.99844ZM1.87188 4.05156C1.2 4.44219 0.75 5.16719 0.75 5.99844C0.75 7.24219 1.75625 8.24844 3 8.24844C3.83125 8.24844 4.55625 7.79844 4.94688 7.12656L1.87188 4.05156ZM7.81875 9.99844C6.15 10.8078 5 12.5203 5 14.4984V14.9984C5 15.5516 5.44687 15.9984 6 15.9984H13.8188L7.81875 9.99844ZM4 9.99844C1.79063 9.99844 0 11.7891 0 13.9984V14.9984C0 15.5516 0.446875 15.9984 1 15.9984H3.70937C3.575 15.6922 3.5 15.3547 3.5 14.9984V14.4984C3.5 12.8359 4.125 11.3172 5.15312 10.1672C4.7875 10.0578 4.4 9.99844 4 9.99844ZM19.25 5.99844C19.25 4.75469 18.2437 3.74844 17 3.74844C15.7563 3.74844 14.75 4.75469 14.75 5.99844C14.75 7.24219 15.7563 8.24844 17 8.24844C18.2437 8.24844 19.25 7.24219 19.25 5.99844Z" fill="#757575"/>
</svg>
